<svg id="visual" viewBox="0 0 900 600" width="900" height="600" xmlns="http://www.w3.org/2000/svg" xmlns:xlink="http://www.w3.org/1999/xlink" version="1.1"><rect x="0" y="0" width="900" height="600" fill="#386640"></rect><defs><linearGradient id="grad1_0" x1="33.3%" y1="0%" x2="100%" y2="100%"><stop offset="20%" stop-color="#599443" stop-opacity="1"></stop><stop offset="80%" stop-color="#599443" stop-opacity="1"></stop></linearGradient></defs><defs><linearGradient id="grad1_1" x1="33.3%" y1="0%" x2="100%" y2="100%"><stop offset="20%" stop-color="#599443" stop-opacity="1"></stop><stop offset="80%" stop-color="#386640" stop-opacity="1"></stop></linearGradient></defs><defs><linearGradient id="grad2_0" x1="0%" y1="0%" x2="66.7%" y2="100%"><stop offset="20%" stop-color="#599443" stop-opacity="1"></stop><stop offset="80%" stop-color="#599443" stop-opacity="1"></stop></linearGradient></defs><defs><linearGradient id="grad2_1" x1="0%" y1="0%" x2="66.7%" y2="100%"><stop offset="20%" stop-color="#386640" stop-opacity="1"></stop><stop offset="80%" stop-color="#599443" stop-opacity="1"></stop></linearGradient></defs><g transform="translate(900, 0)"><path d="M0 297.5C-25.5 276.5 -51 255.5 -81 249.2C-111 242.8 -145.5 251 -174.8 240.6C-204.2 230.3 -228.5 201.3 -233.8 169.9C-239.1 138.4 -225.6 104.4 -233 75.7C-240.5 47 -269 23.5 -297.5 0L0 0Z" fill="#467d43"></path><path d="M0 148.7C-12.7 138.3 -25.5 127.8 -40.5 124.6C-55.5 121.4 -72.7 125.5 -87.4 120.3C-102.1 115.1 -114.2 100.7 -116.9 84.9C-119.6 69.2 -112.8 52.2 -116.5 37.9C-120.2 23.5 -134.5 11.7 -148.7 0L0 0Z" fill="#599443"></path></g><g transform="translate(0, 600)"><path d="M0 -297.5C32.9 -298.1 65.9 -298.7 91.9 -282.9C118 -267.1 137.1 -235 151.6 -208.7C166.2 -182.5 176.1 -162.2 199.8 -145.2C223.5 -128.2 261 -114.5 279.6 -90.9C298.2 -67.2 297.8 -33.6 297.5 0L0 0Z" fill="#467d43"></path><path d="M0 -148.7C16.5 -149 32.9 -149.3 46 -141.4C59 -133.6 68.6 -117.5 75.8 -104.4C83.1 -91.2 88.1 -81.1 99.9 -72.6C111.8 -64.1 130.5 -57.2 139.8 -45.4C149.1 -33.6 148.9 -16.8 148.7 0L0 0Z" fill="#599443"></path></g></svg>